<svg width="147" height="128" viewBox="0 0 147 128" fill="none" xmlns="http://www.w3.org/2000/svg">
<g clip-path="url(#clip0_108_179)">
<path d="M57.2366 70.9646C56.2113 70.6414 55.2129 70.2374 54.2686 69.7527C55.2399 70.1836 56.2383 70.6145 57.2366 70.9646Z" fill="#FF9933"/>
<path d="M66.4644 72.742C64.8995 72.742 63.4424 72.6343 61.7695 72.2034C63.3345 72.4996 64.8995 72.6881 66.4644 72.742Z" fill="#FF9933"/>
<path d="M73.776 72.1765C72.184 72.4997 70.5921 72.7421 68.9192 72.7421H68.8652C70.5381 72.6613 72.1571 72.4728 73.776 72.1765Z" fill="#FF9933"/>
<path d="M89.8037 65.0933C85.7833 68.0556 81.4932 70.3447 76.5015 71.5297C81.0075 70.3178 85.2437 68.2441 89.0482 65.6319C89.291 65.4703 89.5609 65.2818 89.8037 65.0933Z" fill="#FF9933"/>
<path d="M97.3316 22.5427C97.2506 22.6774 97.1697 22.839 97.0617 22.9736C93.0684 29.5178 87.4561 34.5807 81.7358 38.8896C83.6516 37.4084 85.4864 35.9272 87.1593 34.4191C89.3988 32.3993 91.3955 30.3526 93.0953 28.3597C94.7952 26.3669 96.2523 24.374 97.3316 22.5427Z" fill="#FF9933"/>
<path d="M101.379 13.0371C101.379 13.0371 101.379 13.064 101.379 13.091V13.1179C101.379 13.1718 101.352 13.2256 101.325 13.2795C101.217 13.6565 101.083 14.1951 100.867 14.8415C100.921 14.626 101.002 14.4106 101.056 14.2221C101.217 13.5488 101.325 13.1448 101.379 13.0371Z" fill="#FF9933"/>
<path d="M102.458 2.69462C101.703 3.77184 100.812 4.71441 99.814 5.54926C98.222 6.86886 96.4142 7.8653 94.5525 8.67321C92.6907 9.48113 90.748 10.1005 88.8053 10.6122C86.8625 11.1239 84.8928 11.5817 82.9231 11.9857C78.9837 12.7936 75.0443 13.4938 71.1319 14.4094C67.2465 15.3251 63.415 16.4292 59.7724 17.9643C57.9646 18.7453 56.2108 19.634 54.5379 20.6573C53.7014 21.169 52.8919 21.7346 52.1364 22.3001C51.7317 22.5963 51.327 22.9195 50.9492 23.2157C50.5985 23.5389 50.2207 23.8082 49.843 24.1583C46.9289 26.7436 44.4735 29.7868 42.8276 33.207C42.0181 34.9306 41.3975 36.708 40.9928 38.5662C40.615 40.3975 40.4262 42.2826 40.5071 44.1408C40.5341 45.0834 40.669 45.999 40.8039 46.9147C40.9928 47.8303 41.1817 48.746 41.4785 49.6077C41.7483 50.4964 42.0991 51.3582 42.5038 52.1931L42.8006 52.8125C42.9085 53.0279 43.0165 53.2164 43.0704 53.4588C43.1784 53.9436 43.2323 54.4283 42.9895 55.1554L42.9625 55.2093C42.8006 55.6671 42.3419 55.9364 41.8562 55.8556C40.3452 55.5863 39.9135 54.536 39.4818 53.5665C39.0231 52.597 38.6453 51.5737 38.3485 50.5503C37.7279 48.5036 37.3772 46.3491 37.3232 44.2216C37.2693 42.0672 37.5391 39.9396 38.0248 37.866C38.5644 35.7923 39.3469 33.8264 40.3452 31.9682C42.3419 28.2518 45.1481 25.047 48.3859 22.4886C48.7907 22.1654 49.2224 21.8423 49.6271 21.546C50.0318 21.2229 50.4635 20.9805 50.8683 20.6843C51.7587 20.0918 52.6221 19.5532 53.5125 19.0684C55.3203 18.072 57.1821 17.2371 59.0979 16.51C62.9293 15.0558 66.8687 14.0863 70.8081 13.2783C74.7475 12.4974 78.7139 11.8241 82.6533 11.097C86.5657 10.3429 90.5051 9.48113 94.1477 7.91916C95.9555 7.13817 97.7094 6.16867 99.1664 4.90293C99.8949 4.28352 100.569 3.5564 101.163 2.80234C101.568 2.26373 101.946 1.69819 102.269 1.10571C102.404 1.56353 102.431 2.10215 102.458 2.69462Z" fill="#FF9933"/>
<path d="M104.779 2.15713C104.348 1.48387 103.889 0.837534 103.403 0.1912C103.349 0.110408 103.268 0.0565468 103.188 0.00268555C103.241 0.00268555 103.322 0.0296162 103.376 0.0565468C103.457 0.110408 103.538 0.164269 103.565 0.245061C103.997 0.864465 104.402 1.5108 104.779 2.15713Z" fill="#FF9933"/>
<path d="M111.012 28.1716C109.258 37.0317 109.231 37.0317 107.315 42.2293C105.022 48.4772 104.158 49.8507 100.246 54.7521C97.1699 58.6301 95.1193 61.0808 89.9117 64.9857C89.8848 65.0126 89.8308 65.0396 89.8038 65.0665C89.561 65.255 89.2911 65.4435 89.0213 65.6051C85.2168 68.2174 81.0076 70.291 76.4746 71.5029H76.4476C75.5572 71.7183 74.6668 71.9338 73.7494 72.1223C72.1305 72.4185 70.4845 72.6071 68.8386 72.6878C67.9752 72.6878 67.1927 72.6878 66.4102 72.6878C64.8453 72.634 63.2803 72.4455 61.7153 72.1492C61.6883 72.1492 61.6883 72.1492 61.6614 72.1223C60.1773 71.7453 58.6663 71.3682 57.1823 70.9104C56.157 70.5603 55.1856 70.1564 54.2143 69.6985C53.5667 69.3484 52.9191 69.0522 52.2716 68.7021C51.7859 68.4328 51.3002 68.1635 50.8145 67.8673C50.8145 67.8673 50.7875 67.8673 50.7875 67.8403C50.2479 67.4633 49.4924 66.8708 49.0067 66.5207L47.8735 65.5243L47.4957 65.7667C44.7975 67.975 42.504 70.291 40.3454 72.5263C40.2915 72.5801 40.2375 72.6609 40.1835 72.7148C40.0756 72.8225 39.9677 72.9302 39.8867 73.0379C39.7788 73.1457 39.6709 73.2534 39.5629 73.3611C39.509 73.4419 39.428 73.4958 39.3471 73.5766C38.9693 73.8728 38.4836 74.0613 37.944 74.0613C36.6758 74.0613 35.6235 73.0379 35.6235 71.7453C35.6235 71.3952 35.6235 71.2067 35.7854 70.8835C35.7854 70.8835 35.8394 70.7219 35.8664 70.7219C37.1345 69.4292 36.6758 69.8871 37.0536 69.537C37.1345 69.4562 37.2425 69.3754 37.3234 69.2677C39.6169 67.1132 42.3691 65.4166 45.0943 63.3968C50.5447 59.3841 56.4808 55.8562 62.5248 52.1398C68.5418 48.4234 74.4239 44.2222 79.7394 40.3173C80.414 39.8325 81.0616 39.3478 81.7091 38.863C87.4024 34.5541 93.0417 29.4912 97.035 22.947C97.116 22.7854 97.2239 22.6508 97.3049 22.5161C97.3588 22.4353 97.3858 22.3545 97.4398 22.3007C97.5477 22.1122 97.6556 21.9237 97.7636 21.7351C97.8445 21.6005 97.8985 21.4928 97.9794 21.3581C98.7619 19.9847 99.3555 18.692 99.8142 17.5609C99.9491 17.2377 100.057 16.9684 100.165 16.6722C100.192 16.5645 100.246 16.4837 100.273 16.4029C100.381 16.1336 100.462 15.8912 100.543 15.6488C100.597 15.4603 100.678 15.2718 100.732 15.0833C100.759 14.9756 100.786 14.8948 100.813 14.814C101.028 14.1676 101.163 13.656 101.271 13.252C101.298 13.1981 101.298 13.1443 101.325 13.0904V13.0635C101.325 13.0635 101.325 13.0366 101.325 13.0096V12.9827C101.325 12.9827 101.325 12.9827 101.325 12.9558C102.162 9.67023 102.431 6.654 102.431 4.14946C102.431 3.63777 102.431 3.12609 102.404 2.66827C102.378 2.10273 102.351 1.53719 102.297 1.05244C102.431 0.78313 102.566 0.540754 102.674 0.271448C102.755 0.0829338 102.944 -0.0247886 103.16 0.00214201C103.241 0.0560032 103.322 0.109864 103.376 0.190656C103.862 0.836991 104.293 1.48333 104.752 2.15659C106.857 5.71143 108.475 9.56251 109.555 13.5482C110.85 18.288 111.956 23.351 111.012 28.1716Z" fill="url(#paint0_linear_108_179)"/>
</g>
<path d="M17.9689 108.277C17.1469 109.464 16.1649 110.332 15.0232 110.88C13.8357 111.383 12.5341 111.634 11.1184 111.634C7.73875 111.634 5.06704 110.515 3.10321 108.277C1.09371 106.085 0.0889666 103.071 0.0889666 99.2342C0.0889666 95.4436 1.07088 92.4522 3.03471 90.26C5.08987 87.9765 7.80726 86.8347 11.1869 86.8347C14.1098 86.8347 16.5303 87.5426 18.4485 88.9584C20.3209 90.4655 21.4399 92.4293 21.8052 94.8499H18.517C17.5579 94.8499 16.85 94.416 16.3933 93.5483C16.0736 93.0002 15.6169 92.4979 15.0232 92.0411C14.1098 91.4018 12.8995 91.0821 11.3924 91.0821C9.42856 91.0821 7.87577 91.79 6.73401 93.2057C5.59225 94.7129 5.02137 96.7224 5.02137 99.2342C5.02137 101.792 5.61508 103.801 6.80251 105.263C7.94427 106.679 9.56557 107.386 11.6664 107.386C13.2192 107.386 14.498 106.953 15.5027 106.085C16.5075 105.171 17.1469 103.915 17.4209 102.317H14.5436C13.8586 102.317 13.2649 102.089 12.7625 101.632C12.3058 101.13 12.0774 100.536 12.0774 99.8508V98.2752H21.8737V111.086H20.5721C19.2934 111.086 18.4941 110.446 18.1744 109.168L17.9689 108.277ZM23.9974 111.086V102.248C23.9974 100.467 24.2486 98.983 24.751 97.7956C25.299 96.5625 26.0297 95.5806 26.9431 94.8499C27.8109 94.1648 28.8156 93.6624 29.9574 93.3428C31.1448 93.0231 32.3551 92.8632 33.5882 92.8632C33.6795 92.8632 33.7937 92.8632 33.9307 92.8632C34.0677 92.8632 34.1819 92.8632 34.2732 92.8632V97.7271H32.6976C31.3732 97.7271 30.3913 98.0468 29.7519 98.6862C29.1125 99.3256 28.7928 100.33 28.7928 101.7V111.086H23.9974ZM38.1096 109.442C37.1505 108.619 36.4654 107.523 36.0544 106.153C35.6434 104.738 35.4378 103.276 35.4378 101.769C35.4378 100.536 35.5977 99.3027 35.9174 98.0696C36.2827 96.8365 36.8308 95.809 37.5615 94.9869C38.7489 93.6168 40.2789 92.8175 42.1514 92.5892C44.0239 92.3152 45.7137 92.4522 47.2208 93.0002C48.9563 93.6853 50.235 94.8727 51.0571 96.5625C51.8335 98.0696 52.2217 99.8279 52.2217 101.837C52.2217 103.299 52.0619 104.555 51.7422 105.605C51.4225 106.656 51.0114 107.546 50.5091 108.277C49.413 109.784 48.02 110.72 46.3302 111.086C44.8231 111.497 43.2931 111.52 41.7403 111.154C40.2332 110.835 39.023 110.264 38.1096 109.442ZM41.3978 97.3846C40.4387 98.435 40.0049 100.011 40.0962 102.111C40.1876 104.167 40.5758 105.605 41.2608 106.427C41.5348 106.793 42.0144 107.112 42.6994 107.386C43.3845 107.615 44.0695 107.638 44.7546 107.455C45.4853 107.227 46.1247 106.701 46.6727 105.879C47.2208 105.057 47.5177 103.733 47.5633 101.906C47.5633 100.262 47.2893 99.0287 46.7413 98.2066C46.2389 97.3846 45.6452 96.8594 44.9601 96.631C44.2751 96.4027 43.59 96.4027 42.9049 96.631C42.2199 96.8137 41.7175 97.0649 41.3978 97.3846ZM74.2805 111.086H69.4851L66.6764 98.0696L63.8676 111.086H59.0723L54.0714 92.8632H58.7297L61.607 105.468L64.2102 92.8632H69.0741L71.5403 105.468L74.075 94.5073C74.349 93.4113 75.0797 92.8632 76.2672 92.8632H79.2814L74.2805 111.086ZM81.6106 111.086V89.986C81.6106 89.3009 81.8389 88.73 82.2956 88.2733C82.798 87.771 83.3917 87.5198 84.0768 87.5198H86.4745V111.086H81.6106ZM103.669 111.086H101.272C100.587 111.086 100.016 110.88 99.559 110.469C99.148 110.012 98.9425 109.442 98.9425 108.757V99.4397C98.9425 98.3437 98.6 97.5444 97.9149 97.0421C97.2755 96.5397 96.5448 96.2885 95.7227 96.2885C94.9007 96.2885 94.1699 96.5397 93.5306 97.0421C92.8912 97.5444 92.5715 98.3437 92.5715 99.4397V111.086H87.7761V100.399C87.7761 97.2932 88.5753 95.2152 90.1738 94.1648C91.8179 93.1144 93.6219 92.5435 95.5857 92.4522C97.5952 92.4522 99.4449 92.9774 101.135 94.0278C102.824 95.0782 103.669 97.2019 103.669 100.399V111.086ZM117.576 87.4513H119.905C120.545 87.4513 121.093 87.7025 121.549 88.2048C122.006 88.6615 122.234 89.1867 122.234 89.7805V103.139C122.234 106.382 121.298 108.574 119.426 109.716C117.553 110.857 115.521 111.428 113.329 111.428C112.141 111.428 110.977 111.246 109.835 110.88C108.693 110.469 107.78 109.83 107.095 108.962C105.77 107.272 105.108 104.966 105.108 102.043C105.108 99.1657 105.77 96.8594 107.095 95.1239C108.465 93.3428 110.223 92.4522 112.37 92.4522C113.511 92.4522 114.516 92.6805 115.384 93.1372C116.297 93.6853 117.028 94.3932 117.576 95.2609V87.4513ZM109.766 101.837C109.766 103.664 110.109 105.057 110.794 106.016C111.479 106.975 112.461 107.455 113.74 107.455C114.973 107.455 115.932 106.975 116.617 106.016C117.256 105.057 117.576 103.664 117.576 101.837C117.576 100.193 117.233 98.8917 116.548 97.9326C115.818 97.0192 114.836 96.5625 113.603 96.5625C112.415 96.5625 111.479 97.0421 110.794 98.0011C110.109 98.9145 109.766 100.193 109.766 101.837ZM124.564 92.8632H127.03C127.669 92.8632 128.217 93.0916 128.674 93.5483C129.131 94.005 129.359 94.553 129.359 95.1924V111.086H124.564V92.8632ZM124.564 87.5198H127.03C127.669 87.5198 128.217 87.7481 128.674 88.2048C129.131 88.6615 129.359 89.2096 129.359 89.849V91.2876H124.564V87.5198ZM141.21 101.906C140.571 102.226 139.68 102.522 138.539 102.797C137.488 103.025 136.963 103.139 136.963 103.139C136.141 103.367 135.547 103.664 135.182 104.03C134.862 104.532 134.702 105.034 134.702 105.537C134.702 106.222 134.908 106.77 135.319 107.181C135.73 107.546 136.324 107.729 137.1 107.729C138.379 107.729 139.384 107.364 140.114 106.633C140.845 105.902 141.21 104.897 141.21 103.619V101.906ZM142.307 110.332C141.347 110.835 140.32 111.131 139.224 111.223C138.173 111.36 137.237 111.428 136.415 111.428C134.771 111.428 133.332 110.994 132.099 110.127C130.866 109.213 130.25 107.729 130.25 105.674C130.25 103.756 130.798 102.385 131.894 101.563C133.035 100.741 134.474 100.193 136.21 99.9193C136.438 99.9193 136.712 99.8965 137.032 99.8508C137.351 99.7594 137.717 99.6909 138.128 99.6453C140.137 99.3712 141.142 98.7775 141.142 97.8641C141.142 97.1791 140.777 96.7452 140.046 96.5625C139.361 96.3342 138.721 96.22 138.128 96.22C137.488 96.22 136.917 96.3113 136.415 96.494C135.913 96.6767 135.547 97.0192 135.319 97.5216H130.729C130.912 96.1058 131.551 94.9412 132.647 94.0278C133.88 92.9774 135.639 92.4522 137.922 92.4522C140.48 92.4522 142.398 92.886 143.677 93.7538C145.001 94.6672 145.663 95.946 145.663 97.5901V103.824C145.663 105.651 145.321 107.09 144.636 108.14C143.996 109.145 143.22 109.875 142.307 110.332Z" fill="black"/>
<defs>
<linearGradient id="paint0_linear_108_179" x1="35.6775" y1="37.0473" x2="111.371" y2="37.0473" gradientUnits="userSpaceOnUse">
<stop stop-color="#258717"/>
<stop offset="1" stop-color="#48A418"/>
</linearGradient>
<clipPath id="clip0_108_179">
<rect width="75.6851" height="74.0861" fill="white" transform="translate(35.6777)"/>
</clipPath>
</defs>
</svg>
