<svg width="206" height="45" viewBox="0 0 206 45" fill="none" xmlns="http://www.w3.org/2000/svg">
<path d="M13.119 43.0772C12.4966 42.8811 11.8906 42.6359 11.3174 42.3416C11.907 42.6032 12.513 42.8647 13.119 43.0772Z" fill="white"/>
<path d="M18.7205 44.1562C17.7705 44.1562 16.8861 44.0908 15.8706 43.8292C16.8206 44.009 17.7705 44.1235 18.7205 44.1562Z" fill="white"/>
<path d="M23.1591 43.8129C22.1928 44.009 21.2264 44.1562 20.211 44.1562H20.1782C21.1937 44.1071 22.1764 43.9927 23.1591 43.8129Z" fill="white"/>
<path d="M32.8881 39.5135C30.4477 41.3117 27.8435 42.7012 24.8135 43.4205C27.5487 42.6849 30.1201 41.4262 32.4295 39.8405C32.5769 39.7424 32.7407 39.628 32.8881 39.5135Z" fill="white"/>
<path d="M37.4575 13.6851C37.4083 13.7668 37.3592 13.8649 37.2937 13.9466C34.8697 17.919 31.463 20.9922 27.9907 23.6078C29.1536 22.7087 30.2673 21.8096 31.2828 20.8942C32.6422 19.6681 33.8542 18.4257 34.8861 17.216C35.9179 16.0064 36.8023 14.7967 37.4575 13.6851Z" fill="white"/>
<path d="M39.9142 7.91449C39.9142 7.91449 39.9142 7.93084 39.9142 7.94718V7.96353C39.9142 7.99623 39.8978 8.02892 39.8815 8.06161C39.8159 8.29047 39.7341 8.61742 39.603 9.00975C39.6358 8.87897 39.6849 8.74819 39.7177 8.63376C39.8159 8.22509 39.8815 7.97988 39.9142 7.91449Z" fill="white"/>
<path d="M40.5696 1.63721C40.111 2.2911 39.5705 2.86325 38.9645 3.37001C37.9982 4.17102 36.9008 4.77586 35.7707 5.26628C34.6406 5.75669 33.4613 6.13268 32.2821 6.44327C31.1028 6.75387 29.9072 7.03177 28.7116 7.27698C26.3203 7.76739 23.9291 8.19242 21.5542 8.74822C19.1957 9.30403 16.8699 9.97426 14.6589 10.906C13.5615 11.3801 12.4969 11.9196 11.4814 12.5408C10.9737 12.8514 10.4823 13.1946 10.0237 13.5379C9.77807 13.7178 9.53239 13.9139 9.30309 14.0937C9.09017 14.2899 8.86087 14.4534 8.63158 14.6659C6.8627 16.2352 5.37226 18.0824 4.37317 20.1585C3.88182 21.2048 3.50511 22.2837 3.25944 23.4116C3.03014 24.5232 2.91549 25.6675 2.96462 26.7955C2.981 27.3676 3.0629 27.9234 3.14479 28.4792C3.25944 29.035 3.37409 29.5908 3.55425 30.1139C3.71803 30.6534 3.93095 31.1765 4.17663 31.6833L4.35679 32.0593C4.42231 32.19 4.48782 32.3045 4.52058 32.4516C4.58609 32.7458 4.61885 33.0401 4.47144 33.4815L4.45507 33.5142C4.35679 33.7921 4.07836 33.9555 3.78355 33.9065C2.86635 33.743 2.6043 33.1055 2.34224 32.517C2.06381 31.9285 1.83451 31.3073 1.65435 30.6861C1.27764 29.4437 1.06472 28.1359 1.03197 26.8445C0.999208 25.5367 1.16299 24.2453 1.45781 22.9866C1.78538 21.7279 2.26035 20.5345 2.86635 19.4066C4.07836 17.1507 5.78172 15.2053 7.74714 13.6524C7.99282 13.4562 8.25487 13.26 8.50055 13.0802C8.74623 12.8841 9.00828 12.7369 9.25396 12.5571C9.79445 12.1975 10.3186 11.8705 10.859 11.5763C11.9564 10.9714 13.0865 10.4647 14.2494 10.0233C16.5751 9.14055 18.9664 8.55206 21.3576 8.06164C23.7489 7.58757 26.1565 7.1789 28.5478 6.73752C30.9227 6.2798 33.3139 5.75669 35.525 4.80856C36.6224 4.33449 37.687 3.74599 38.5714 2.97768C39.0136 2.60169 39.4231 2.16032 39.7834 1.7026C40.0291 1.37566 40.2584 1.03237 40.4549 0.672729C40.5368 0.950631 40.5532 1.27757 40.5696 1.63721Z" fill="white"/>
<path d="M41.9781 1.31027C41.716 0.901596 41.4376 0.509264 41.1427 0.116932C41.11 0.067891 41.0609 0.0351967 41.0117 0.00250244C41.0445 0.00250244 41.0936 0.0188496 41.1264 0.0351967C41.1755 0.067891 41.2246 0.100585 41.241 0.149627C41.5031 0.525611 41.7488 0.917943 41.9781 1.31027Z" fill="white"/>
<path d="M45.7615 17.1016C44.6969 22.4798 44.6805 22.4798 43.5176 25.6348C42.1254 29.4274 41.6013 30.2611 39.2264 33.2362C37.3593 35.5902 36.1145 37.0778 32.9535 39.4482C32.9371 39.4645 32.9044 39.4809 32.888 39.4972C32.7406 39.6116 32.5768 39.7261 32.413 39.8242C30.1036 41.4098 27.5486 42.6686 24.797 43.4042H24.7806C24.2401 43.535 23.6997 43.6657 23.1428 43.7802C22.1601 43.96 21.161 44.0744 20.1619 44.1234C19.6378 44.1234 19.1628 44.1234 18.6878 44.1234C17.7379 44.0908 16.7879 43.9763 15.838 43.7965C15.8216 43.7965 15.8216 43.7965 15.8052 43.7802C14.9044 43.5513 13.9872 43.3224 13.0864 43.0445C12.464 42.832 11.8744 42.5868 11.2848 42.3089C10.8917 42.0964 10.4986 41.9166 10.1055 41.7041C9.81071 41.5406 9.51589 41.3771 9.22108 41.1973C9.22108 41.1973 9.2047 41.1973 9.2047 41.181C8.87713 40.9521 8.41854 40.5925 8.12372 40.38L7.43583 39.7751L7.20653 39.9222C5.56868 41.2627 4.17651 42.6685 2.86623 44.0254C2.83348 44.0581 2.80072 44.1071 2.76796 44.1398C2.70245 44.2052 2.63693 44.2706 2.5878 44.336C2.52228 44.4014 2.45677 44.4667 2.39126 44.5321C2.3585 44.5812 2.30936 44.6139 2.26023 44.6629C2.03093 44.8427 1.73612 44.9572 1.40855 44.9572C0.63876 44.9572 0 44.336 0 43.5513C0 43.3388 0 43.2244 0.0982708 43.0282C0.0982708 43.0282 0.131028 42.9301 0.147406 42.9301C0.917194 42.1454 0.63876 42.4233 0.868059 42.2108C0.917194 42.1618 0.982708 42.1127 1.03184 42.0474C2.42401 40.7396 4.09462 39.7097 5.74884 38.4837C9.0573 36.048 12.6606 33.9065 16.3293 31.6506C19.9817 29.3947 23.5522 26.8445 26.7788 24.4742C27.1883 24.1799 27.5813 23.8857 27.9744 23.5914C31.4303 20.9759 34.8534 17.9026 37.2774 13.9303C37.3265 13.8322 37.3921 13.7504 37.4412 13.6687C37.4739 13.6197 37.4903 13.5706 37.5231 13.5379C37.5886 13.4235 37.6541 13.3091 37.7196 13.1946C37.7688 13.1129 37.8015 13.0475 37.8506 12.9658C38.3256 12.1321 38.686 11.3474 38.9644 10.6608C39.0463 10.4647 39.1118 10.3012 39.1773 10.1214C39.1937 10.056 39.2264 10.0069 39.2428 9.9579C39.3083 9.79443 39.3575 9.64731 39.4066 9.50018C39.4394 9.38575 39.4885 9.27132 39.5213 9.15689C39.5376 9.0915 39.554 9.04246 39.5704 8.99342C39.7014 8.60109 39.7833 8.29049 39.8488 8.04528C39.8652 8.01259 39.8652 7.9799 39.8816 7.9472V7.93085C39.8816 7.93085 39.8816 7.91451 39.8816 7.89816V7.88181C39.8816 7.88181 39.8816 7.88181 39.8816 7.86547C40.3893 5.87111 40.5531 4.04023 40.5531 2.51995C40.5531 2.20935 40.5531 1.89876 40.5367 1.62085C40.5203 1.27756 40.504 0.934273 40.4712 0.640025C40.5531 0.476553 40.635 0.329429 40.7005 0.165957C40.7496 0.0515272 40.8643 -0.0138614 40.9953 0.00248579C41.0445 0.0351801 41.0936 0.0678744 41.1263 0.116916C41.4212 0.509248 41.6832 0.901579 41.9616 1.31026C43.2392 3.46808 44.2219 5.80572 44.877 8.2251C45.6632 11.1022 46.3347 14.1755 45.7615 17.1016Z" fill="white"/>
<path d="M79.9375 34.4375C79.1875 35.5208 78.2917 36.3125 77.25 36.8125C76.1667 37.2708 74.9792 37.5 73.6875 37.5C70.6042 37.5 68.1667 36.4792 66.375 34.4375C64.5417 32.4375 63.625 29.6875 63.625 26.1875C63.625 22.7292 64.5208 20 66.3125 18C68.1875 15.9167 70.6667 14.875 73.75 14.875C76.4167 14.875 78.625 15.5208 80.375 16.8125C82.0833 18.1875 83.1042 19.9792 83.4375 22.1875H80.4375C79.5625 22.1875 78.9167 21.7917 78.5 21C78.2083 20.5 77.7917 20.0417 77.25 19.625C76.4167 19.0417 75.3125 18.75 73.9375 18.75C72.1458 18.75 70.7292 19.3958 69.6875 20.6875C68.6458 22.0625 68.125 23.8958 68.125 26.1875C68.125 28.5208 68.6667 30.3542 69.75 31.6875C70.7917 32.9792 72.2708 33.625 74.1875 33.625C75.6042 33.625 76.7708 33.2292 77.6875 32.4375C78.6042 31.6042 79.1875 30.4583 79.4375 29H76.8125C76.1875 29 75.6458 28.7917 75.1875 28.375C74.7708 27.9167 74.5625 27.375 74.5625 26.75V25.3125H83.5V37H82.3125C81.1458 37 80.4167 36.4167 80.125 35.25L79.9375 34.4375ZM86.494 37V28.9375C86.494 27.3125 86.7231 25.9583 87.1815 24.875C87.6815 23.75 88.3481 22.8542 89.1815 22.1875C89.9731 21.5625 90.8898 21.1042 91.9315 20.8125C93.0148 20.5208 94.119 20.375 95.244 20.375C95.3273 20.375 95.4315 20.375 95.5565 20.375C95.6815 20.375 95.7856 20.375 95.869 20.375V24.8125H94.4315C93.2231 24.8125 92.3273 25.1042 91.744 25.6875C91.1606 26.2708 90.869 27.1875 90.869 28.4375V37H86.494ZM100.425 35.5C99.5505 34.75 98.9255 33.75 98.5505 32.5C98.1755 31.2083 97.988 29.875 97.988 28.5C97.988 27.375 98.1338 26.25 98.4255 25.125C98.7588 24 99.2588 23.0625 99.9255 22.3125C101.009 21.0625 102.405 20.3333 104.113 20.125C105.821 19.875 107.363 20 108.738 20.5C110.321 21.125 111.488 22.2083 112.238 23.75C112.946 25.125 113.3 26.7292 113.3 28.5625C113.3 29.8958 113.155 31.0417 112.863 32C112.571 32.9583 112.196 33.7708 111.738 34.4375C110.738 35.8125 109.467 36.6667 107.925 37C106.55 37.375 105.155 37.3958 103.738 37.0625C102.363 36.7708 101.259 36.25 100.425 35.5ZM103.425 24.5C102.55 25.4583 102.155 26.8958 102.238 28.8125C102.321 30.6875 102.675 32 103.3 32.75C103.55 33.0833 103.988 33.375 104.613 33.625C105.238 33.8333 105.863 33.8542 106.488 33.6875C107.155 33.4792 107.738 33 108.238 32.25C108.738 31.5 109.009 30.2917 109.05 28.625C109.05 27.125 108.8 26 108.3 25.25C107.842 24.5 107.3 24.0208 106.675 23.8125C106.05 23.6042 105.425 23.6042 104.8 23.8125C104.175 23.9792 103.717 24.2083 103.425 24.5ZM134.482 37H130.107L127.544 25.125L124.982 37H120.607L116.044 20.375H120.294L122.919 31.875L125.294 20.375H129.732L131.982 31.875L134.294 21.875C134.544 20.875 135.211 20.375 136.294 20.375H139.044L134.482 37ZM142.226 37V17.75C142.226 17.125 142.434 16.6042 142.851 16.1875C143.309 15.7292 143.851 15.5 144.476 15.5H146.663V37H142.226ZM163.407 37H161.22C160.595 37 160.074 36.8125 159.657 36.4375C159.282 36.0208 159.095 35.5 159.095 34.875V26.375C159.095 25.375 158.782 24.6458 158.157 24.1875C157.574 23.7292 156.907 23.5 156.157 23.5C155.407 23.5 154.741 23.7292 154.157 24.1875C153.574 24.6458 153.282 25.375 153.282 26.375V37H148.907V27.25C148.907 24.4167 149.637 22.5208 151.095 21.5625C152.595 20.6042 154.241 20.0833 156.032 20C157.866 20 159.553 20.4792 161.095 21.4375C162.637 22.3958 163.407 24.3333 163.407 27.25V37ZM177.151 15.4375H179.276C179.86 15.4375 180.36 15.6667 180.776 16.125C181.193 16.5417 181.401 17.0208 181.401 17.5625V29.75C181.401 32.7083 180.547 34.7083 178.839 35.75C177.131 36.7917 175.276 37.3125 173.276 37.3125C172.193 37.3125 171.131 37.1458 170.089 36.8125C169.047 36.4375 168.214 35.8542 167.589 35.0625C166.381 33.5208 165.776 31.4167 165.776 28.75C165.776 26.125 166.381 24.0208 167.589 22.4375C168.839 20.8125 170.443 20 172.401 20C173.443 20 174.36 20.2083 175.151 20.625C175.985 21.125 176.651 21.7708 177.151 22.5625V15.4375ZM170.026 28.5625C170.026 30.2292 170.339 31.5 170.964 32.375C171.589 33.25 172.485 33.6875 173.651 33.6875C174.776 33.6875 175.651 33.25 176.276 32.375C176.86 31.5 177.151 30.2292 177.151 28.5625C177.151 27.0625 176.839 25.875 176.214 25C175.547 24.1667 174.651 23.75 173.526 23.75C172.443 23.75 171.589 24.1875 170.964 25.0625C170.339 25.8958 170.026 27.0625 170.026 28.5625ZM184.583 20.375H186.833C187.416 20.375 187.916 20.5833 188.333 21C188.75 21.4167 188.958 21.9167 188.958 22.5V37H184.583V20.375ZM184.583 15.5H186.833C187.416 15.5 187.916 15.7083 188.333 16.125C188.75 16.5417 188.958 17.0417 188.958 17.625V18.9375H184.583V15.5ZM200.827 28.625C200.243 28.9167 199.431 29.1875 198.389 29.4375C197.431 29.6458 196.952 29.75 196.952 29.75C196.202 29.9583 195.66 30.2292 195.327 30.5625C195.035 31.0208 194.889 31.4792 194.889 31.9375C194.889 32.5625 195.077 33.0625 195.452 33.4375C195.827 33.7708 196.368 33.9375 197.077 33.9375C198.243 33.9375 199.16 33.6042 199.827 32.9375C200.493 32.2708 200.827 31.3542 200.827 30.1875V28.625ZM201.827 36.3125C200.952 36.7708 200.014 37.0417 199.014 37.125C198.056 37.25 197.202 37.3125 196.452 37.3125C194.952 37.3125 193.639 36.9167 192.514 36.125C191.389 35.2917 190.827 33.9375 190.827 32.0625C190.827 30.3125 191.327 29.0625 192.327 28.3125C193.368 27.5625 194.681 27.0625 196.264 26.8125C196.473 26.8125 196.723 26.7917 197.014 26.75C197.306 26.6667 197.639 26.6042 198.014 26.5625C199.848 26.3125 200.764 25.7708 200.764 24.9375C200.764 24.3125 200.431 23.9167 199.764 23.75C199.139 23.5417 198.556 23.4375 198.014 23.4375C197.431 23.4375 196.91 23.5208 196.452 23.6875C195.993 23.8542 195.66 24.1667 195.452 24.625H191.264C191.431 23.3333 192.014 22.2708 193.014 21.4375C194.139 20.4792 195.743 20 197.827 20C200.16 20 201.91 20.3958 203.077 21.1875C204.285 22.0208 204.889 23.1875 204.889 24.6875V30.375C204.889 32.0417 204.577 33.3542 203.952 34.3125C203.368 35.2292 202.66 35.8958 201.827 36.3125Z" fill="white"/>
</svg>
